# xmcd
#
# Track frame offsets:
#	150
#	18715
#	34656
#	53152
#	67293
#	87296
#	107416
#	124343
#	145884
#	163130
#	179473
#	197799
#	214510
#	230469
#	247325
#	264076
#	283170
#	296899
#	314024
#	337105
#
# Disc length: 4700 seconds
#
# Revision: 1
# Processed by: cddbd v1.5.2PL0 Copyright (c) Steve Scherf et al.
# Submitted via: audiograbber 1.83.01
#
DISCID=44125a14
DTITLE=Various Artist - R&B Lovesongs 2008 - CD2
DYEAR=2008
DGENRE=R&B
TTITLE0=Alicia Keys - No One
TTITLE1=Timbaland feat. Justin Timberlakre and Nelly Furtado - Give It To Me
TTITLE2=Gwen Stefani feat. Akon - The Sweet Escape
TTITLE3=Sugababes - About You Now
TTITLE4=Ne-Yo - Because Of You
TTITLE5=Jennifer Lopez - Baby I Love You!
TTITLE6=Beyoncé - Crazy In Love
TTITLE7=The Game - Dreams
TTITLE8=Mary Jane Girls - All Night Long
TTITLE9=The Black Eyed Peas - Let's Get It Started
TTITLE10=Kelly Rowland - Can't Nobody
TTITLE11=Brownstone - If You Love Me
TTITLE12=Taio Cruz - I Just Wanna Know
TTITLE13=Shakira - Underneath Your Clothes
TTITLE14=SWV - Right Here
TTITLE15=Robin Thicke - Lost Without You
TTITLE16=Ashanti - Only U
TTITLE17=The Pussycat Dolls feat. Will.I.Am - Beep
TTITLE18=Marvin Gaye - My Love Is Waiting
TTITLE19=Mary J. Blige - Family Affair
EXTD=
EXTT0=
EXTT1=
EXTT2=
EXTT3=
EXTT4=
EXTT5=
EXTT6=
EXTT7=
EXTT8=
EXTT9=
EXTT10=
EXTT11=
EXTT12=
EXTT13=
EXTT14=
EXTT15=
EXTT16=
EXTT17=
EXTT18=
EXTT19=
PLAYORDER=
